<svg width="24" height="24" viewBox="0 0 24 24" fill="none" xmlns="http://www.w3.org/2000/svg">
<path d="M9 10.0005C9 10.1331 9.05268 10.2603 9.14645 10.354C9.24021 10.4478 9.36739 10.5005 9.5 10.5005C9.63261 10.5005 9.75979 10.4478 9.85355 10.354C9.94732 10.2603 10 10.1331 10 10.0005V9.00049C10 8.86788 9.94732 8.7407 9.85355 8.64693C9.75979 8.55317 9.63261 8.50049 9.5 8.50049C9.36739 8.50049 9.24021 8.55317 9.14645 8.64693C9.05268 8.7407 9 8.86788 9 9.00049V10.0005ZM9 10.0005C9 11.3266 9.52678 12.5983 10.4645 13.536C11.4021 14.4737 12.6739 15.0005 14 15.0005M14 15.0005H15C15.1326 15.0005 15.2598 14.9478 15.3536 14.854C15.4473 14.7603 15.5 14.6331 15.5 14.5005C15.5 14.3679 15.4473 14.2407 15.3536 14.1469C15.2598 14.0532 15.1326 14.0005 15 14.0005H14C13.8674 14.0005 13.7402 14.0532 13.6464 14.1469C13.5527 14.2407 13.5 14.3679 13.5 14.5005C13.5 14.6331 13.5527 14.7603 13.6464 14.854C13.7402 14.9478 13.8674 15.0005 14 15.0005ZM3 21.0007L4.65 17.2007C3.38766 15.4088 2.82267 13.2177 3.06104 11.0388C3.29942 8.85988 4.32479 6.84284 5.94471 5.36622C7.56463 3.8896 9.66775 3.05492 11.8594 3.0188C14.051 2.98269 16.1805 3.74763 17.8482 5.17007C19.5159 6.59252 20.6071 8.57468 20.9172 10.7446C21.2272 12.9145 20.7347 15.1229 19.5321 16.9555C18.3295 18.788 16.4994 20.1187 14.3854 20.6978C12.2713 21.2769 10.0186 21.0646 8.05 20.1007L3 21.0007Z" stroke="#373737" stroke-width="1.2" stroke-linecap="round" stroke-linejoin="round"/>
</svg>
